<svg width="190" height="100" viewBox="0 0 190 100" fill="none" xmlns="http://www.w3.org/2000/svg">
<g filter="url(#filter0_b_5_29)">
<rect x="20" y="20" width="150" height="60" rx="6" fill="#000015"/>
<path d="M40.5284 65V35.9091H46.679V59.929H59.1506V65H40.5284ZM81.1925 35.9091H87.343V54.8011C87.343 56.9223 86.8364 58.7784 85.8232 60.3693C84.8194 61.9602 83.4131 63.2008 81.6044 64.0909C79.7957 64.9716 77.6887 65.4119 75.2834 65.4119C72.8686 65.4119 70.7569 64.9716 68.9482 64.0909C67.1394 63.2008 65.7332 61.9602 64.7294 60.3693C63.7256 58.7784 63.2237 56.9223 63.2237 54.8011V35.9091H69.3743V54.2756C69.3743 55.3835 69.6158 56.3684 70.0987 57.2301C70.5911 58.0919 71.2824 58.7689 72.1726 59.2614C73.0627 59.7538 74.0997 60 75.2834 60C76.4766 60 77.5135 59.7538 78.3942 59.2614C79.2843 58.7689 79.9709 58.0919 80.4538 57.2301C80.9463 56.3684 81.1925 55.3835 81.1925 54.2756V35.9091ZM98.9517 65L90.6278 35.9091H97.3466L102.162 56.1222H102.403L107.716 35.9091H113.469L118.767 56.1648H119.023L123.838 35.9091H130.557L122.233 65H116.239L110.699 45.9801H110.472L104.946 65H98.9517ZM139.999 35.9091V65H133.849V35.9091H139.999Z" fill="white"/>
</g>
<defs>
<filter id="filter0_b_5_29" x="16" y="16" width="158" height="68" filterUnits="userSpaceOnUse" color-interpolation-filters="sRGB">
<feFlood flood-opacity="0" result="BackgroundImageFix"/>
<feGaussianBlur in="BackgroundImageFix" stdDeviation="2"/>
<feComposite in2="SourceAlpha" operator="in" result="effect1_backgroundBlur_5_29"/>
<feBlend mode="normal" in="SourceGraphic" in2="effect1_backgroundBlur_5_29" result="shape"/>
</filter>
</defs>
</svg>
